<svg width="0" height="0" class="hidden">
    <symbol
        xmlns="http://www.w3.org/2000/svg" viewBox="0 0 32 32" id="gift">
        <title>gift</title>
        <path d="M24.11 10a12.62 12.62 0 0 0 1.608-1.348c1.044-1.044 1.742-2.328 1.966-3.616.246-1.412-.115-2.723-.988-3.597-.697-.697-1.641-1.065-2.73-1.065-1.551 0-3.185.744-4.483 2.043-2.077 2.077-3.288 4.945-3.94 6.991-.482-2.056-1.444-4.833-3.313-6.702-1.003-1.003-2.285-1.518-3.495-1.518-.989 0-1.931.344-2.633 1.046-1.562 1.562-1.351 4.306.471 6.128.65.65 1.409 1.189 2.21 1.638H2.001v8h2v14h24V18h2v-8h-5.89zm-3.037-5.993c.866-.866 1.948-1.384 2.892-1.384.334 0 .803.07 1.139.406.813.813.357 2.697-.977 4.031-1.373 1.373-3.221 2.318-4.826 2.939h-1.584c.58-1.798 1.627-4.264 3.356-5.993zM7.31 5.028c-.022-.285-.002-.82.381-1.203.32-.32.743-.387 1.042-.387.664 0 1.358.313 1.904.859 1.059 1.058 1.93 2.743 2.521 4.871l.047.171-.171-.047c-2.128-.591-3.813-1.462-4.871-2.521-.495-.495-.805-1.13-.853-1.743zM14 30H6V17h8v13zm0-14H4v-4h10v4zm12 14h-8V17h8v13zm2-14H18v-4h10v4z"></path>
    </symbol>
    <symbol
        xmlns="http://www.w3.org/2000/svg" viewBox="0 0 32 32" id="heart">
        <title>heart-stroke</title>
        <path d="M23.113 6a4.894 4.894 0 0 1 4.836 4.188L16.004 23.906 4.051 10.188A4.894 4.894 0 0 1 8.887 6c2.016 0 3.855 2.164 3.855 2.164L16 11.625l3.258-3.461S21.098 6 23.113 6zm0-4c-2.984 0-5.5 1.578-7.113 3.844C14.387 3.578 11.871 2 8.887 2 3.984 2 0 5.992 0 10.891v.734L16.008 30 32 11.625v-.734C32 5.992 28.016 2 23.113 2z"></path>
    </symbol>
    <symbol
        xmlns="http://www.w3.org/2000/svg" viewBox="-5 0 32 32" id="lock">
        <title>lock</title>
        <path d="M18.5 14H18V8c0-3.308-2.692-6-6-6H8C4.692 2 2 4.692 2 8v6h-.5c-.825 0-1.5.675-1.5 1.5v15c0 .825.675 1.5 1.5 1.5h17c.825 0 1.5-.675 1.5-1.5v-15c0-.825-.675-1.5-1.5-1.5zM6 8c0-1.103.897-2 2-2h4c1.103 0 2 .897 2 2v6H6V8z"></path>
    </symbol>
</svg>